<svg xmlns="http://www.w3.org/2000/svg" data-name="Layer 1" viewBox="0 0 512 512" id="work-from-home"><path fill="#f7f7f7" d="M480 171.38V474.5a30 30 0 0 1-30 30H62a30 30 0 0 1-30-30V171.38l226.67-135Z"></path><path fill="#eee" d="m258.67 36.38-15.18 9 159.18 97.09A98.77 98.77 0 0 1 450 226.82V474.5a30 30 0 0 1-30 30h30a30 30 0 0 0 30-30V171.38Z"></path><path fill="#f66" d="M491.28 177.37 256 52.5 20.72 177.37a9 9 0 0 1-13.22-8v-24.58a9 9 0 0 1 4.78-7.95L256 7.5l243.72 129.34a9 9 0 0 1 4.78 7.95v24.63a9 9 0 0 1-13.22 7.95Z"></path><path fill="#ff4e4e" d="M499.72 136.84 256 7.5l-15 8 228.72 121.34a9 9 0 0 1 4.78 7.95v23.67l16.78 8.91a9 9 0 0 0 13.22-8v-24.58a9 9 0 0 0-4.78-7.95Z"></path><path fill="#f66" d="M344.24 323.24v12.64a15.65 15.65 0 0 1-15.67 15.62h-109a15.64 15.64 0 0 1-15.67-15.62v-12.64a41.57 41.57 0 0 1 33.88-40.81l9.39-1.78 11.55-2.2h30.75l20.93 4a41.58 41.58 0 0 1 33.84 40.79Z"></path><path fill="#ff4e4e" d="m310.35 282.43-20.93-4h-23.58l20.93 4a41.57 41.57 0 0 1 33.88 40.81v12.64A15.64 15.64 0 0 1 305 351.5h23.59a15.65 15.65 0 0 0 15.67-15.62v-12.64a41.58 41.58 0 0 0-33.91-40.81Z"></path><path fill="#ffcd85" d="M258.67 272.15v12.75a14.86 14.86 0 0 0 14.87 14.87h1a14.87 14.87 0 0 0 14.88-14.87v-12.75"></path><path fill="#ffc166" d="M276.91 272.15v12.75a14.87 14.87 0 0 1-9.12 13.72 14.86 14.86 0 0 0 5.75 1.15h1a14.87 14.87 0 0 0 14.88-14.87v-12.75Z"></path><path fill="#676e87" d="M310.81 213.42v-28.63c0-6.42-5.22-13.29-11.66-13.29h-61.88v18.66a11.65 11.65 0 0 0 11.67 11.63"></path><path fill="#595f74" d="M299.15 171.5h-15c6.44 0 11.66 6.87 11.66 13.29v25.81l15 2.82v-28.63c0-6.42-5.22-13.29-11.66-13.29Z"></path><path fill="#ffcd85" d="M275.24 275.09h-2.4a35.57 35.57 0 0 1-35.57-35.57V209.6a7.81 7.81 0 0 1 7.81-7.81H303a7.81 7.81 0 0 1 7.81 7.81v29.92a35.57 35.57 0 0 1-35.57 35.57Z"></path><path fill="#ffc166" d="M303 201.79h-15a7.81 7.81 0 0 1 7.81 7.81v29.92a35.56 35.56 0 0 1-29.27 35 35.4 35.4 0 0 0 6.3.57h2.4a35.56 35.56 0 0 0 35.57-35.57V209.6a7.81 7.81 0 0 0-7.81-7.81Z"></path><path fill="#595f74" d="M91.5 351.5h269a31 31 0 0 1-31 31h-207a31 31 0 0 1-31-31Z"></path><path fill="#4a4f60" d="M330.5 351.5a31 31 0 0 1-31 31h30a31 31 0 0 0 31-31Z"></path><path fill="#676e87" d="M118.58 382.5h213.27v122H118.58z"></path><path fill="#595f74" d="M301.85 382.5h30v122h-30z"></path><path fill="#ff4e4e" d="M248.41 285.28v66.22h-28.89a15.64 15.64 0 0 1-15.67-15.62v-12.64a41.57 41.57 0 0 1 33.88-40.81l9.39-1.78a8.9 8.9 0 0 1 1.29 4.63Z"></path><path fill="#dedede" d="M122.59 276.28h101.82a9 9 0 0 1 9 9v66.22H113.59v-66.22a9 9 0 0 1 9-9Z"></path><path fill="#63ea86" d="M423.26 383.5h15v15a15 15 0 0 1-15 15h-15v-15a15 15 0 0 1 15-15Z"></path><path fill="#3ce568" d="M426.23 383.5v15a15 15 0 0 1-15 15h12.05a15 15 0 0 0 15-15v-15Z"></path><path fill="#63ea86" d="M408.29 428.5h-15a15 15 0 0 1-15-15v-15h15a15 15 0 0 1 15 15v15Z"></path><path fill="#3ce568" d="M393.32 398.5h-12.81a15 15 0 0 1 15 15v15h12.81v-15a15 15 0 0 0-15-15Z"></path><path fill="#ff8e66" d="M436.36 504.5h-56.14l-9.79-43.73a5 5 0 0 1 4.88-6.1h66a5 5 0 0 1 4.88 6.1Z"></path><path fill="#ff7c4e" d="M441.27 454.67h-15a5 5 0 0 1 4.88 6.1l-9.79 43.73h15l9.79-43.73a5 5 0 0 0-4.88-6.1Z"></path><path fill="#272a33" d="M503.23 130.22 259.52.88a7.5 7.5 0 0 0-7 0L8.77 130.22A16.46 16.46 0 0 0 0 144.79v24.63A16.5 16.5 0 0 0 24.23 184l.27-.14V474.5A37.54 37.54 0 0 0 62 512h388a37.54 37.54 0 0 0 37.5-37.5V183.85l.27.14A16.5 16.5 0 0 0 512 169.42v-24.63a16.46 16.46 0 0 0-8.77-14.57ZM324.35 497H126.08V390h198.27ZM122.5 375a23.53 23.53 0 0 1-22.27-16h251.54a23.53 23.53 0 0 1-22.27 16Zm-1.41-31v-58.72a1.5 1.5 0 0 1 1.5-1.5h101.82a1.5 1.5 0 0 1 1.5 1.5V344Zm124-134.71H303a.31.31 0 0 1 .31.31v29.92a28.1 28.1 0 0 1-28.07 28.07h-2.4a28.1 28.1 0 0 1-28.07-28.07V209.6a.31.31 0 0 1 .31-.31Zm-.31-19.13V179h54.38c1.72 0 4.16 3 4.16 5.79v9.52h-54.38a4.15 4.15 0 0 1-4.17-4.15Zm37.15 91.91v2.83a7.38 7.38 0 0 1-7.38 7.37h-1a7.37 7.37 0 0 1-7.37-7.37v-2.83a43.09 43.09 0 0 0 6.67.52h2.4a43.32 43.32 0 0 0 6.67-.52Zm-8.38 25.2h1a22.39 22.39 0 0 0 22.22-19.79L309 289.8a34.12 34.12 0 0 1 27.78 33.44v12.64a8.16 8.16 0 0 1-8.17 8.12h-87.7v-54.54l10.41-2a22.4 22.4 0 0 0 22.22 19.81ZM430.35 497h-44.12l-7.8-34.83h59.72Zm-29.56-76h-7.54a7.48 7.48 0 0 1-7.46-7.47V406h7.53a7.48 7.48 0 0 1 7.47 7.47Zm71.71 53.5A22.52 22.52 0 0 1 450 497h-4.28l7.75-34.6a12.52 12.52 0 0 0-12.2-15.23h-25.48V421h7.53a22.5 22.5 0 0 0 22.47-22.47v-15a7.5 7.5 0 0 0-7.5-7.5h-15a22.49 22.49 0 0 0-21.67 16.58 22.24 22.24 0 0 0-8.26-1.58h-15a7.5 7.5 0 0 0-7.5 7.5v15A22.49 22.49 0 0 0 393.25 436h7.54v11.17h-25.48a12.5 12.5 0 0 0-12.2 15.23l7.74 34.6h-31.5V388.72A38.56 38.56 0 0 0 368 351.5a7.5 7.5 0 0 0-7.5-7.5h-10.24a23 23 0 0 0 1.48-8.12v-12.64a49.14 49.14 0 0 0-40-48.18l-9.74-1.85a43 43 0 0 0 16.29-33.69v-54.73c0-12.25-10.1-20.79-19.16-20.79h-61.86a7.5 7.5 0 0 0-7.5 7.5v18.66a18.94 18.94 0 0 0 3 10.31 15.27 15.27 0 0 0-3 9.13v29.92a43 43 0 0 0 16.29 33.69l-8.85 1.68a16.47 16.47 0 0 0-12.8-6.11H122.59a16.52 16.52 0 0 0-16.5 16.5V344H91.5a7.5 7.5 0 0 0-7.5 7.5 38.58 38.58 0 0 0 27.08 36.77V497H62a22.52 22.52 0 0 1-22.5-22.5V175.89L256 61l216.5 114.9ZM415.79 406v-7.53a7.48 7.48 0 0 1 7.46-7.47h7.54v7.53a7.48 7.48 0 0 1-7.47 7.47ZM497 169.42a1.4 1.4 0 0 1-.73 1.28 1.41 1.41 0 0 1-1.47 0l-11.21-6-224-118.89a7.48 7.48 0 0 0-7 0l-224 118.89-11.21 6a1.41 1.41 0 0 1-1.47 0 1.4 1.4 0 0 1-.73-1.28v-24.63a1.5 1.5 0 0 1 .8-1.32L256 16l240.2 127.47a1.5 1.5 0 0 1 .8 1.32Z"></path></svg>