<svg xmlns="http://www.w3.org/2000/svg" enable-background="new 0 0 64 64" viewBox="0 0 64 64" id="clock"><path fill="#E5E5E5" d="M47,14h5c2.2,0,4,1.8,4,4v30c0,2.2-1.8,4-4,4H12c-2.2,0-4-1.8-4-4V18c0-2.2,1.8-4,4-4h5"></path><path fill="#EA685E" d="M52,14h-5H17h-5c-2.2,0-4,1.8-4,4v5h48v-5C56,15.8,54.2,14,52,14z"></path><line x1="35" x2="41" y1="14" y2="14" fill="none" stroke="#2C3E50" stroke-linecap="round" stroke-linejoin="round" stroke-miterlimit="10" stroke-width="2"></line><line x1="23" x2="29" y1="14" y2="14" fill="none" stroke="#2C3E50" stroke-linecap="round" stroke-linejoin="round" stroke-miterlimit="10" stroke-width="2"></line><path fill="none" stroke="#2C3E50" stroke-linecap="round" stroke-linejoin="round" stroke-miterlimit="10" stroke-width="2" d="M35 52H12c-2.2 0-4-1.8-4-4V18c0-2.2 1.8-4 4-4h5M47 14h5c2.2 0 4 1.8 4 4v17"></path><circle cx="29" cy="31.2" r="1" fill="none" stroke="#2C3E50" stroke-linecap="round" stroke-linejoin="round" stroke-miterlimit="10" stroke-width="2"></circle><circle cx="36" cy="31.2" r="1" fill="none" stroke="#2C3E50" stroke-linecap="round" stroke-linejoin="round" stroke-miterlimit="10" stroke-width="2"></circle><circle cx="43" cy="31.2" r="1" fill="none" stroke="#2C3E50" stroke-linecap="round" stroke-linejoin="round" stroke-miterlimit="10" stroke-width="2"></circle><circle cx="50" cy="31.2" r="1" fill="none" stroke="#2C3E50" stroke-linecap="round" stroke-linejoin="round" stroke-miterlimit="10" stroke-width="2"></circle><circle cx="29" cy="38.2" r="1" fill="none" stroke="#2C3E50" stroke-linecap="round" stroke-linejoin="round" stroke-miterlimit="10" stroke-width="2"></circle><circle cx="22" cy="38.2" r="1" fill="none" stroke="#2C3E50" stroke-linecap="round" stroke-linejoin="round" stroke-miterlimit="10" stroke-width="2"></circle><circle cx="15" cy="38.2" r="1" fill="none" stroke="#2C3E50" stroke-linecap="round" stroke-linejoin="round" stroke-miterlimit="10" stroke-width="2"></circle><circle cx="36" cy="38.2" r="1" fill="none" stroke="#2C3E50" stroke-linecap="round" stroke-linejoin="round" stroke-miterlimit="10" stroke-width="2"></circle><circle cx="29" cy="45.2" r="1" fill="none" stroke="#2C3E50" stroke-linecap="round" stroke-linejoin="round" stroke-miterlimit="10" stroke-width="2"></circle><circle cx="22" cy="45.2" r="1" fill="none" stroke="#2C3E50" stroke-linecap="round" stroke-linejoin="round" stroke-miterlimit="10" stroke-width="2"></circle><circle cx="15" cy="45.2" r="1" fill="none" stroke="#2C3E50" stroke-linecap="round" stroke-linejoin="round" stroke-miterlimit="10" stroke-width="2"></circle><line x1="32" x2="32" y1="16" y2="10" fill="none" stroke="#2C3E50" stroke-linecap="round" stroke-linejoin="round" stroke-miterlimit="10" stroke-width="2"></line><line x1="20" x2="20" y1="16" y2="10" fill="none" stroke="#2C3E50" stroke-linecap="round" stroke-linejoin="round" stroke-miterlimit="10" stroke-width="2"></line><line x1="44" x2="44" y1="16" y2="10" fill="none" stroke="#2C3E50" stroke-linecap="round" stroke-linejoin="round" stroke-miterlimit="10" stroke-width="2"></line><line x1="8" x2="56" y1="23" y2="23" fill="none" stroke="#2C3E50" stroke-linecap="round" stroke-linejoin="round" stroke-miterlimit="10" stroke-width="2"></line><circle cx="49.2" cy="48" r="11.1" fill="#D4C8BC"></circle><path fill="#FFD766" d="M43.4,38.5l5.6,9.3l10.6-3.6c0,0-1.9-5-6.6-6.6C48.3,35.9,44.7,37.6,43.4,38.5z"></path><circle cx="49.2" cy="48" r="11.1" fill="none" stroke="#2C3E50" stroke-linecap="round" stroke-linejoin="round" stroke-miterlimit="10" stroke-width="2"></circle><line x1="49.2" x2="54.3" y1="48" y2="46.2" fill="none" stroke="#2C3E50" stroke-linecap="round" stroke-linejoin="round" stroke-miterlimit="10" stroke-width="2"></line><line x1="49.2" x2="45.1" y1="48" y2="41.4" fill="none" stroke="#2C3E50" stroke-linecap="round" stroke-linejoin="round" stroke-miterlimit="10" stroke-width="2"></line></svg>