<svg xmlns="http://www.w3.org/2000/svg" enable-background="new 0 0 64 64" viewBox="0 0 64 64" id="approved-file"><path d="M28.11 2.79c-1.52 0-2.76 1.24-2.76 2.77 0 1.52 1.24 2.76 2.76 2.76 1.53 0 2.77-1.24 2.77-2.76C30.88 4.03 29.64 2.79 28.11 2.79zM28.11 6.38c-.45 0-.82-.37-.82-.82 0-.46.37-.83.82-.83.46 0 .83.37.83.83C28.94 6.01 28.57 6.38 28.11 6.38zM20.99 15.86h-6.81c-.99 0-1.8.81-1.8 1.8v6.81c0 .99.81 1.8 1.8 1.8h6.81c.99 0 1.8-.81 1.8-1.8v-6.81C22.79 16.67 21.98 15.86 20.99 15.86zM20.85 24.33h-6.53V17.8h6.53V24.33zM20.99 30h-6.81c-.99 0-1.8.81-1.8 1.8v6.81c0 .99.81 1.8 1.8 1.8h6.81c.99 0 1.8-.81 1.8-1.8V31.8C22.79 30.81 21.98 30 20.99 30zM20.85 38.47h-6.53v-6.53h6.53V38.47zM20.99 44.14h-6.81c-.99 0-1.8.8-1.8 1.79v6.81c0 1 .81 1.8 1.8 1.8h6.81c.99 0 1.8-.8 1.8-1.8v-6.81C22.79 44.94 21.98 44.14 20.99 44.14zM20.85 52.6h-6.53v-6.53h6.53V52.6z"></path><path d="M57.29,48.31c-1.39-1.65-3.33-2.81-5.53-3.23v-33c0-1.55-1.26-2.81-2.81-2.81h-6.2c-0.79-2.55-3.13-4.33-5.87-4.33h-2.94
		C33.48,2.14,31.04,0,28.11,0c-2.92,0-5.36,2.14-5.82,4.94h-2.94c-2.75,0-5.08,1.78-5.87,4.33H7.27c-1.55,0-2.81,1.26-2.81,2.81
		v46.59c0,1.55,1.26,2.81,2.81,2.81h36.28c1.7,1.56,3.96,2.52,6.44,2.52h0.05c5.26-0.03,9.52-4.33,9.5-9.6
		C59.52,52.08,58.68,49.96,57.29,48.31z M19.35,6.88h3.83c0.53,0,0.97-0.44,0.97-0.97c0-2.19,1.78-3.97,3.96-3.97
		c2.19,0,3.97,1.78,3.97,3.97c0,0.53,0.43,0.97,0.97,0.97h3.83c1.66,0,3.11,0.96,3.79,2.39H15.55C16.24,7.84,17.68,6.88,19.35,6.88z
		 M7.27,59.54c-0.48,0-0.87-0.39-0.87-0.87V12.08c0-0.48,0.39-0.87,0.87-0.87h41.68c0.48,0,0.87,0.39,0.87,0.87v32.83
		c-5.21,0.09-9.4,4.37-9.38,9.59c0.01,1.85,0.56,3.58,1.49,5.04H7.27z M50.03,62.06h-0.04c-4.18,0-7.59-3.39-7.61-7.57
		c-0.02-4.19,3.38-7.62,7.57-7.65h0.04c4.18,0,7.59,3.39,7.61,7.57C57.62,58.61,54.22,62.04,50.03,62.06z"></path><path fill="#00dcab" d="M49.99,46.84h-0.04c-4.19,0.03-7.59,3.46-7.57,7.65c0.02,4.18,3.43,7.57,7.61,7.57h0.04
		c4.19-0.02,7.59-3.45,7.57-7.65C57.58,50.23,54.17,46.84,49.99,46.84z M55.04,51.96l-6.34,6.35c-0.19,0.19-0.44,0.29-0.69,0.29
		s-0.5-0.1-0.69-0.29l-3.13-3.13c-0.38-0.38-0.38-0.99,0-1.37s0.99-0.38,1.37,0l2.45,2.45l5.66-5.67c0.38-0.38,1-0.38,1.37,0
		C55.42,50.97,55.42,51.58,55.04,51.96z"></path><path fill="#4bc8f1" d="M36.88,6.88h-3.83c-0.54,0-0.97-0.44-0.97-0.97c0-2.19-1.78-3.97-3.97-3.97c-2.18,0-3.96,1.78-3.96,3.97
		c0,0.53-0.44,0.97-0.97,0.97h-3.83c-1.67,0-3.11,0.96-3.8,2.39h25.12C39.99,7.84,38.54,6.88,36.88,6.88z M28.11,8.32
		c-1.52,0-2.76-1.24-2.76-2.76c0-1.53,1.24-2.77,2.76-2.77c1.53,0,2.77,1.24,2.77,2.77C30.88,7.08,29.64,8.32,28.11,8.32z"></path><path fill="#e1e3e8" d="M48.95,11.21H7.27c-0.48,0-0.87,0.39-0.87,0.87v46.59c0,0.48,0.39,0.87,0.87,0.87h34.66
		c-0.93-1.46-1.48-3.19-1.49-5.04c-0.02-5.22,4.17-9.5,9.38-9.59V12.08C49.82,11.6,49.43,11.21,48.95,11.21z M22.79,52.74
		c0,1-0.81,1.8-1.8,1.8h-6.81c-0.99,0-1.8-0.8-1.8-1.8v-6.81c0-0.99,0.81-1.79,1.8-1.79h6.81c0.99,0,1.8,0.8,1.8,1.79V52.74z
		 M22.79,38.61c0,0.99-0.81,1.8-1.8,1.8h-6.81c-0.99,0-1.8-0.81-1.8-1.8V31.8c0-0.99,0.81-1.8,1.8-1.8h6.81c0.99,0,1.8,0.81,1.8,1.8
		V38.61z M22.79,24.47c0,0.99-0.81,1.8-1.8,1.8h-6.81c-0.99,0-1.8-0.81-1.8-1.8v-6.81c0-0.99,0.81-1.8,1.8-1.8h6.81
		c0.99,0,1.8,0.81,1.8,1.8V24.47z M36.58,52.8H26.46c-0.53,0-0.97-0.43-0.97-0.97c0-0.53,0.44-0.97,0.97-0.97h10.12
		c0.54,0,0.97,0.44,0.97,0.97C37.55,52.37,37.12,52.8,36.58,52.8z M39.76,47.81h-13.3c-0.53,0-0.97-0.43-0.97-0.97
		c0-0.53,0.44-0.97,0.97-0.97h13.3c0.54,0,0.97,0.44,0.97,0.97C40.73,47.38,40.3,47.81,39.76,47.81z M42.88,38.67H26.46
		c-0.53,0-0.97-0.44-0.97-0.97c0-0.54,0.44-0.97,0.97-0.97h16.42c0.53,0,0.97,0.43,0.97,0.97C43.85,38.23,43.41,38.67,42.88,38.67z
		 M42.88,33.68H26.46c-0.53,0-0.97-0.44-0.97-0.97c0-0.54,0.44-0.97,0.97-0.97h16.42c0.53,0,0.97,0.43,0.97,0.97
		C43.85,33.24,43.41,33.68,42.88,33.68z M42.88,24.53H26.46c-0.53,0-0.97-0.43-0.97-0.97c0-0.53,0.44-0.97,0.97-0.97h16.42
		c0.53,0,0.97,0.44,0.97,0.97C43.85,24.1,43.41,24.53,42.88,24.53z M42.88,19.54H26.46c-0.53,0-0.97-0.43-0.97-0.97
		c0-0.53,0.44-0.97,0.97-0.97h16.42c0.53,0,0.97,0.44,0.97,0.97C43.85,19.11,43.41,19.54,42.88,19.54z"></path><rect width="6.53" height="6.53" x="14.32" y="17.8" fill="#4bc8f1"></rect><rect width="6.53" height="6.53" x="14.32" y="31.94" fill="#4bc8f1"></rect><rect width="6.53" height="6.53" x="14.32" y="46.07" fill="#4bc8f1"></rect><path d="M43.85 18.57c0 .54-.44.97-.97.97H26.46c-.53 0-.97-.43-.97-.97 0-.53.44-.97.97-.97h16.42C43.41 17.6 43.85 18.04 43.85 18.57zM43.85 23.56c0 .54-.44.97-.97.97H26.46c-.53 0-.97-.43-.97-.97 0-.53.44-.97.97-.97h16.42C43.41 22.59 43.85 23.03 43.85 23.56zM43.85 32.71c0 .53-.44.97-.97.97H26.46c-.53 0-.97-.44-.97-.97 0-.54.44-.97.97-.97h16.42C43.41 31.74 43.85 32.17 43.85 32.71zM43.85 37.7c0 .53-.44.97-.97.97H26.46c-.53 0-.97-.44-.97-.97 0-.54.44-.97.97-.97h16.42C43.41 36.73 43.85 37.16 43.85 37.7zM40.73 46.84c0 .54-.43.97-.97.97h-13.3c-.53 0-.97-.43-.97-.97 0-.53.44-.97.97-.97h13.3C40.3 45.87 40.73 46.31 40.73 46.84zM37.55 51.83c0 .54-.43.97-.97.97H26.46c-.53 0-.97-.43-.97-.97 0-.53.44-.97.97-.97h10.12C37.12 50.86 37.55 51.3 37.55 51.83zM55.04 51.96l-6.34 6.35c-.19.19-.44.29-.69.29s-.5-.1-.69-.29l-3.13-3.13c-.38-.38-.38-.99 0-1.37s.99-.38 1.37 0l2.45 2.45 5.66-5.67c.38-.38 1-.38 1.37 0C55.42 50.97 55.42 51.58 55.04 51.96z"></path></svg>