<svg xmlns="http://www.w3.org/2000/svg" viewBox="0 0 250 250" id="approved-text-file"><path fill="none" stroke="#005096" stroke-linecap="round" stroke-linejoin="round" stroke-width="4" d="M24.86 167.33V44a16.53 16.53 0 0 1 16.53-16.5h116.94A16.53 16.53 0 0 1 174.86 44v18.3m0 124.7v19a16.53 16.53 0 0 1-16.53 16.53H84.8"></path><path fill="none" stroke="#005096" stroke-linecap="round" stroke-linejoin="round" stroke-width="4" d="M175.14 75.51a50 50 0 1 1-50 50 50 50 0 0 1 50-50"></path><path fill="none" stroke="#005096" stroke-linecap="round" stroke-linejoin="round" stroke-width="4" d="M175.14 85.53a40 40 0 1 1-40 40 40 40 0 0 1 40-40M51.8 57.67h93.33M51.8 77.3h77M51.8 96.93h63.33M51.8 116.56h55.33"></path><path fill="none" stroke="#005096" stroke-linecap="round" stroke-linejoin="round" stroke-width="4" d="m198.24 102.6-27.67 45.83-16.33-23.68M61 167.33H24.86L84.8 222.5v-31A24 24 0 0 0 61 167.33Z"></path></svg>