<svg xmlns="http://www.w3.org/2000/svg" data-name="Layer 1" viewBox="0 0 48 48" id="calendar"><rect width="4.083" height="10.046" x="8.602" y=".75" fill="#ffeedf" rx="2.041" ry="2.041"></rect><path fill="#ffe4cb" d="M9.911,8.755V2.791A2.034,2.034,0,0,1,11.3.867,2.019,2.019,0,0,0,8.6,2.791V8.755A2.041,2.041,0,0,0,10.643,10.8a2,2,0,0,0,.655-.117A2.034,2.034,0,0,1,9.911,8.755Z"></path><path fill="#ffeedf" d="M12.685,8.755V2.791A2.035,2.035,0,0,0,11.3.867,2.034,2.034,0,0,0,9.911,2.791V8.755A2.034,2.034,0,0,0,11.3,10.679,2.035,2.035,0,0,0,12.685,8.755Z"></path><rect width="4.083" height="10.046" x="35.315" y=".75" fill="#ffeedf" rx="2.041" ry="2.041"></rect><path fill="#ffe4cb" d="M36.624,8.755V2.791A2.034,2.034,0,0,1,38.011.867a2.019,2.019,0,0,0-2.7,1.924V8.755A2.041,2.041,0,0,0,37.356,10.8a2.009,2.009,0,0,0,.655-.117A2.034,2.034,0,0,1,36.624,8.755Z"></path><path fill="#ffeedf" d="M39.4,8.755V2.791A2.034,2.034,0,0,0,38.011.867a2.034,2.034,0,0,0-1.387,1.924V8.755a2.034,2.034,0,0,0,1.387,1.924A2.034,2.034,0,0,0,39.4,8.755Z"></path><path fill="#03518b" d="M47.25,5.584H41.705V8.515a4.482,4.482,0,0,1-3.914,4.523A4.355,4.355,0,0,1,33.007,8.71V5.584H14.992V8.515a4.481,4.481,0,0,1-3.914,4.523A4.355,4.355,0,0,1,6.294,8.71V5.584H.75v9.757h46.5Z"></path><path fill="#e84767" d="M.75,15.341V45.15a2.1,2.1,0,0,0,2.1,2.1h42.3a2.1,2.1,0,0,0,2.1-2.1V15.341Z"></path><path fill="#d64260" d="M4.219,43.491V15.341H.75V45.15a2.1,2.1,0,0,0,2.1,2.1h42.3A2.1,2.1,0,0,0,47.2,45.591H6.319A2.1,2.1,0,0,1,4.219,43.491Z"></path><path fill="#e84767" d="M47.25,15.341H4.219v28.15a2.1,2.1,0,0,0,2.1,2.1H47.2a2.135,2.135,0,0,0,.048-.441Z"></path><path fill="#01497f" d="M47.25,5.584H41.705V8.515a4.482,4.482,0,0,1-3.914,4.523A4.355,4.355,0,0,1,33.007,8.71V5.584H14.992V8.515a4.481,4.481,0,0,1-3.914,4.523A4.355,4.355,0,0,1,6.294,8.71V5.584H.75v9.757h46.5Z"></path><path fill="#01497f" d="M39.25 12.6c-.053.027-.11.044-.164.069h0C39.18 12.713 39.228 12.68 39.25 12.6zM11.078 13.038a3.648 3.648 0 0 0 .691-.14A4.127 4.127 0 0 1 11.078 13.038zM37.791 13.038a3.648 3.648 0 0 0 .691-.14A4.127 4.127 0 0 1 37.791 13.038zM12.476 12.628c-.034.016-.069.028-.1.043h0C12.467 12.712 12.491 12.689 12.476 12.628z"></path><path fill="#03518b" d="M11.769 12.9a4.053 4.053 0 0 0 .6-.227A4.655 4.655 0 0 1 11.769 12.9zM38.482 12.9a4.053 4.053 0 0 0 .6-.227A4.711 4.711 0 0 1 38.482 12.9z"></path><path fill="#03518b" d="M41.705,5.584V8.515A4.6,4.6,0,0,1,39.25,12.6c-.022.078-.07.111-.164.069h0a4.053,4.053,0,0,1-.6.227,3.648,3.648,0,0,1-.691.14A4.355,4.355,0,0,1,33.007,8.71V5.584H14.992V8.515a4.59,4.59,0,0,1-2.516,4.113c.015.061-.009.084-.1.043h0a4.053,4.053,0,0,1-.6.227,3.648,3.648,0,0,1-.691.14A4.355,4.355,0,0,1,6.294,8.71V5.584H4.219v9.757H47.25V5.584Z"></path><path fill="#d64260" d="M.75,15.341V45.15a2.1,2.1,0,0,0,2.1,2.1h42.3a2.1,2.1,0,0,0,2.1-2.1V15.341Z"></path><path fill="#e84767" d="M47.25,15.341H4.219v20.8a9.452,9.452,0,0,0,9.452,9.452H47.2l.048-.048Z"></path><path fill="#ffeedf" d="M28.107,36.853h-.461v-7.1a2.258,2.258,0,0,0-2.258-2.258h-.2A3.34,3.34,0,0,0,22.539,28.8l-5.692,7.432a2.282,2.282,0,0,0,1.812,3.67H23.88v1.575a1.883,1.883,0,0,0,3.766,0V39.886h.461a1.517,1.517,0,1,0,0-3.033Zm-4.227,0H20.572l3.308-4.774Z"></path><path fill="#1c1c1b" d="M10.644 11.546a2.794 2.794 0 0 0 2.791-2.791V2.792a2.792 2.792 0 1 0-5.583 0V8.755A2.794 2.794 0 0 0 10.644 11.546zM9.352 2.792a1.292 1.292 0 1 1 2.583 0V8.755a1.292 1.292 0 0 1-2.583 0zM37.356 11.546a2.794 2.794 0 0 0 2.791-2.791V2.792a2.791 2.791 0 1 0-5.582 0V8.755A2.794 2.794 0 0 0 37.356 11.546zM36.065 2.792a1.291 1.291 0 1 1 2.582 0V8.755a1.291 1.291 0 0 1-2.582 0z"></path><path fill="#1c1c1b" d="M48,15.341V5.584a.75.75,0,0,0-.75-.75H41.705a.75.75,0,0,0-.75.75V8.516a3.736,3.736,0,0,1-3.237,3.775,3.556,3.556,0,0,1-2.777-.916,3.6,3.6,0,0,1-1.184-2.666V5.584a.75.75,0,0,0-.75-.75H14.993a.75.75,0,0,0-.75.75V8.516a3.736,3.736,0,0,1-3.238,3.775,3.562,3.562,0,0,1-2.776-.915A3.607,3.607,0,0,1,7.044,8.709V5.584a.75.75,0,0,0-.75-.75H.75a.75.75,0,0,0-.75.75V45.15A2.853,2.853,0,0,0,2.85,48h42.3A2.853,2.853,0,0,0,48,45.15V15.341ZM45.15,46.5H2.85A1.351,1.351,0,0,1,1.5,45.15V6.334H5.544V8.709a5.1,5.1,0,0,0,5.607,5.075,5.249,5.249,0,0,0,4.592-5.268V6.334H32.257V8.709a5.1,5.1,0,0,0,5.607,5.075,5.249,5.249,0,0,0,4.591-5.268V6.334H46.5v8.257H3.055a.75.75,0,0,0,0,1.5H46.5V45.15A1.351,1.351,0,0,1,45.15,46.5Z"></path><path fill="#1c1c1b" d="M18.865 21.959V18.432a.75.75 0 0 0-1.5 0v3.527a1.29 1.29 0 1 1-2.58 0v-.743a.75.75 0 0 0-1.5 0v.743a2.79 2.79 0 1 0 5.58 0zM22.409 24.75a2.794 2.794 0 0 0 2.79-2.791V18.432a.75.75 0 0 0-1.5 0v3.527a1.291 1.291 0 1 1-2.581 0V18.432a.75.75 0 0 0-1.5 0v3.527A2.794 2.794 0 0 0 22.409 24.75zM30.782 23.25h-3.33V18.432a.75.75 0 0 0-1.5 0V24a.75.75 0 0 0 .75.75h4.08a.75.75 0 0 0 0-1.5zM34.676 17.988l-1.435 1.959-1.436-1.959a.75.75 0 0 0-1.21.887l1.9 2.586V24a.75.75 0 0 0 1.5 0V21.461l1.9-2.586a.75.75 0 0 0-1.21-.887zM24.1 31.363a.754.754 0 0 0-.84.288l-3.308 4.775a.749.749 0 0 0 .616 1.177H23.88a.75.75 0 0 0 .75-.75V32.079A.748.748 0 0 0 24.1 31.363zM23.13 36.1H22l1.126-1.625z"></path><path fill="#1c1c1b" d="M28.4,36.122V29.749a3.011,3.011,0,0,0-3.007-3.008h-.2a4.111,4.111,0,0,0-3.246,1.6l-5.692,7.432a3.032,3.032,0,0,0,2.407,4.876H23.13v.826a2.633,2.633,0,0,0,5.266,0v-.86a2.266,2.266,0,0,0,0-4.5Zm-.289,3.014h-.461a.75.75,0,0,0-.75.75v1.592a1.133,1.133,0,0,1-2.266,0V39.9a.75.75,0,0,0-.75-.75H18.659a1.532,1.532,0,0,1-1.217-2.464l5.693-7.432a2.6,2.6,0,0,1,2.055-1.015h.2A1.509,1.509,0,0,1,26.9,29.749v7.1a.751.751,0,0,0,.75.75h.461a.767.767,0,1,1,0,1.533Z"></path></svg>