<svg xmlns="http://www.w3.org/2000/svg" viewBox="0 0 64 64" id="calendar"><linearGradient id="a" x1="36.248" x2="36.248" y1="8.431" y2="58.807" gradientUnits="userSpaceOnUse"><stop offset="0" stop-color="#fff" stop-opacity=".25"></stop><stop offset="1" stop-color="#ff9d23" stop-opacity=".7"></stop></linearGradient><path fill="url(#a)" d="M33 8.8c3.5-.8 7.3-.3 10.4 1.4 1.8 1 3.5 2.5 4.3 4.4 1.3 3.1.1 6.6.7 9.9.8 4.4 4.5 7.6 7.9 10.5 3.4 2.9 6.9 6.5 6.9 11 0 3.3-2 6.3-4.6 8.2-2.6 1.9-5.9 2.9-9.1 3.5-11.6 2.3-23.9.7-34.4-4.6-2.2-1.1-4.5-2.6-5.5-4.9-1.2-3.2.7-6.9 3.4-9 2.7-2.1 6.1-3.2 9-4.9 3-1.7 5.8-4.5 5.9-7.9.1-3-1.7-5.6-2.8-8.3-.5-1.2-1.3-2.8-.5-4 .8-1.3 2.2-2.4 3.4-3.2 1.6-.9 3.3-1.7 5-2.1z"></path><path fill="#9495fa" stroke="#0000db" stroke-linecap="round" stroke-linejoin="round" stroke-miterlimit="10" stroke-width="1.269" d="M10.8 14.2v22.9c0 1.1.9 2 2.1 2h23.5c.7-4.5 4.1-8.1 8.6-9v-16H10.8z"></path><path fill="#fff" d="M12.6 16v19.6c0 1 .8 1.7 1.9 1.7h22.7c2-3 2.2-4.9 5.9-6.4V16H12.6z"></path><path fill="#f86c66" stroke="#0000db" stroke-linecap="round" stroke-linejoin="round" stroke-miterlimit="10" stroke-width="1.269" d="M10.8 14.2V9.9c0-1.1.9-2 2.1-2h29.9c1.2 0 2.1.9 2.1 2v4.3H10.8z"></path><path fill="#fff" stroke="#0000db" stroke-linecap="round" stroke-linejoin="round" stroke-miterlimit="10" stroke-width="1.269" d="M18.6 11.1h0c-.7 0-1.3-.6-1.3-1.3V5.6c0-.7.6-1.3 1.3-1.3h0c.7 0 1.3.6 1.3 1.3v4.1c0 .8-.6 1.4-1.3 1.4zm18.5.4h0c-.7 0-1.3-.6-1.3-1.3V6c0-.7.6-1.3 1.3-1.3h0c.7 0 1.3.6 1.3 1.3v4.1c.1.8-.5 1.4-1.3 1.4z"></path><path fill="#fed3be" stroke="#0000db" stroke-linecap="round" stroke-linejoin="round" stroke-miterlimit="10" stroke-width="1.269" d="M58.2 40.9c0 6.1-4.9 11-11 11s-11-4.9-11-11c0-.6 0-1.2.1-1.8.7-4.5 4.1-8.1 8.6-9 .7-.2 1.5-.2 2.3-.2 6.1 0 11 5 11 11z"></path><path fill="none" stroke="#0000db" stroke-linecap="round" stroke-linejoin="round" stroke-miterlimit="10" stroke-width="1.269" d="M47.2 29.9V32M36.2 40.9h2.2M47.2 51.9v-2.1M58.2 40.9h-2.1"></path><path fill="#9495fa" stroke="#0000db" stroke-linecap="round" stroke-linejoin="round" stroke-miterlimit="10" stroke-width="1.269" d="M48.6 40.9c0 .7-.6 1.3-1.3 1.3-.7 0-1.3-.6-1.3-1.3 0-.7.6-1.3 1.3-1.3.7 0 1.3.6 1.3 1.3z"></path><path fill="none" stroke="#0000db" stroke-linecap="round" stroke-linejoin="round" stroke-miterlimit="10" stroke-width="1.269" d="M51.4 40.9h-2.8M46.3 40l-3.8-3.8"></path><path fill="#ff9d23" stroke="#0000db" stroke-linecap="round" stroke-linejoin="round" stroke-miterlimit="10" stroke-width="1.269" d="M16.2 17.6h3.7v3.7h-3.7zM26 17.6h3.7v3.7H26zM35.8 17.6h3.7v3.7h-3.7zM16.2 24.7h3.7v3.7h-3.7zM26 24.7h3.7v3.7H26zM35.8 24.7h3.7v3.7h-3.7zM16.2 31.8h3.7v3.7h-3.7zM26 31.8h3.7v3.7H26z"></path><path fill="none" stroke="#ff9d23" stroke-linecap="round" stroke-linejoin="round" stroke-miterlimit="10" stroke-width="1.649" d="m6.2 6.2 1.9-1.9L9.7 6"></path><path fill="none" stroke="#9495fa" stroke-linecap="round" stroke-linejoin="round" stroke-miterlimit="10" stroke-width="1.649" d="m59.6 31.8 1.9-1.9 1.6 1.7M3.4 13.5.9 16"></path><path fill="none" stroke="#ff9d23" stroke-linecap="round" stroke-linejoin="round" stroke-miterlimit="10" stroke-width="1.649" d="M58.8 15.2 55.9 18"></path><path fill="none" stroke="#0000db" stroke-linecap="round" stroke-linejoin="round" stroke-miterlimit="10" stroke-width="1.649" d="m22.8 49.4-2.9 2.9"></path><path fill="none" stroke="#ff4b4d" stroke-linecap="round" stroke-linejoin="round" stroke-miterlimit="10" stroke-width="1.222" d="m58.3 57.7-2.2 2.2"></path></svg>